<?xml version="1.0" standalone="no"?>
<!DOCTYPE svg PUBLIC "-//W3C//DTD SVG 20010904//EN"
 "http://www.w3.org/TR/2001/REC-SVG-20010904/DTD/svg10.dtd">
<svg version="1.0" xmlns="http://www.w3.org/2000/svg"
 width="512.000000pt" height="512.000000pt" viewBox="0 0 512.000000 512.000000"
 preserveAspectRatio="xMidYMid meet">
<metadata>
Created by potrace 1.16, written by Peter Selinger 2001-2019
</metadata>
<g transform="translate(0.000000,512.000000) scale(0.100000,-0.100000)"
fill="#000000" stroke="none">
<path d="M0 2560 l0 -2560 23 0 c18 0 26 10 41 53 22 63 93 192 180 325 34 53
88 140 119 192 56 96 207 402 207 420 0 5 -16 56 -35 112 -39 115 -43 140 -20
132 20 -8 19 17 -5 93 -10 34 -22 86 -25 115 l-6 53 25 -64 c13 -35 29 -68 35
-74 13 -13 28 25 46 115 10 53 19 74 43 96 32 30 37 45 46 120 5 53 13 63 31
39 11 -16 17 -10 56 55 23 40 79 129 124 198 94 145 257 476 281 570 21 79 21
207 1 273 -23 72 -74 144 -122 172 -23 14 -80 33 -126 42 -81 15 -124 33 -84
33 11 1 31 7 44 14 24 13 24 14 3 20 -13 4 -19 13 -15 22 3 9 -2 14 -16 14
-28 0 -39 -29 -17 -45 15 -11 14 -13 -6 -18 -177 -42 -279 -81 -414 -159 -116
-66 -139 -74 -170 -57 -24 13 -50 9 -119 -15 -23 -9 63 42 165 97 67 36 87 57
54 57 -35 0 0 19 66 35 52 13 70 21 70 34 0 27 21 41 60 41 40 0 54 7 63 32 3
10 21 19 44 23 56 9 153 37 159 47 3 4 32 8 65 8 34 0 59 4 59 10 0 21 30 21
59 1 41 -29 86 -38 94 -17 10 26 25 19 46 -22 17 -33 78 -92 95 -92 3 0 6 7 6
15 0 34 18 10 49 -66 23 -57 37 -79 47 -75 16 6 20 -8 31 -124 13 -145 8 -237
-21 -350 -45 -182 -118 -344 -234 -524 -26 -39 -88 -153 -139 -254 -86 -169
-93 -188 -93 -242 0 -32 4 -70 10 -85 l10 -26 57 39 c77 52 281 163 422 229
63 29 130 66 150 81 20 15 45 32 56 38 14 8 19 20 17 40 -2 16 -4 72 -5 124
-2 95 16 173 50 226 14 22 32 177 33 282 0 39 -6 75 -16 95 -22 41 -25 107 -8
125 8 7 14 24 14 36 0 13 7 29 15 36 8 7 15 23 15 36 0 13 4 23 9 22 12 -4
111 148 111 170 0 10 5 23 11 29 15 15 -16 108 -43 127 -14 10 -16 15 -6 18 8
3 -13 30 -56 72 -74 73 -75 80 -13 103 23 8 26 12 12 12 -11 1 -53 -15 -94
-34 -80 -38 -127 -48 -72 -14 26 16 32 25 29 44 -4 16 -1 22 9 18 19 -7 16 8
-10 47 -49 74 -60 114 -55 197 2 43 10 88 17 101 12 22 14 23 30 8 10 -9 31
-47 46 -84 52 -130 58 -142 67 -142 5 0 6 -6 1 -12 -4 -7 13 3 37 22 54 43 86
60 112 60 15 0 18 -4 14 -17 -16 -41 -17 -98 -3 -118 15 -19 16 -19 28 8 15
32 93 77 134 77 38 0 92 25 105 50 11 20 16 21 108 15 118 -7 150 -15 227 -59
l60 -33 -1 -52 -2 -51 52 0 c57 0 65 -4 89 -40 27 -39 22 -77 -13 -95 -35 -18
-39 -29 -7 -20 19 6 18 4 -7 -18 l-29 -24 19 -26 c10 -15 22 -27 27 -27 4 0 7
-13 7 -30 0 -25 -4 -30 -25 -30 -20 0 -25 -6 -31 -35 -4 -22 -12 -35 -22 -35
-12 0 -11 -4 6 -20 25 -24 26 -30 11 -64 -9 -19 -22 -27 -55 -32 -52 -7 -64
-20 -69 -71 l-5 -38 11 43 c6 23 14 40 20 37 5 -4 9 -1 9 6 0 8 4 8 15 -1 12
-10 15 -10 15 1 1 9 4 7 11 -4 7 -11 9 -41 5 -70 -3 -29 -6 -70 -8 -92 -1 -23
-4 -5 -8 40 l-6 80 -3 -70 c-2 -56 -4 -65 -12 -46 -5 13 -12 21 -16 18 -3 -4
-1 -19 5 -34 6 -15 14 -48 17 -72 6 -39 5 -42 -11 -37 -14 4 -24 -3 -36 -25
l-18 -30 30 21 c28 20 30 20 31 3 2 -27 -2 -47 -10 -53 -8 -6 -10 -16 -17
-117 -4 -49 -10 -73 -20 -77 -24 -9 -36 41 -29 122 6 60 4 72 -8 72 -8 0 -17
-6 -19 -12 -9 -29 -2 -178 8 -188 9 -9 8 -18 -1 -38 -23 -49 -26 -69 -11 -81
12 -10 13 -17 4 -30 -12 -20 -3 -71 12 -71 15 0 23 66 15 134 -5 55 -4 66 11
74 12 7 27 5 51 -7 32 -16 43 -31 23 -31 -5 0 -10 -7 -10 -15 0 -9 -7 -18 -15
-21 -18 -7 -20 -30 -2 -37 9 -4 8 -8 -3 -16 -13 -9 -12 -12 5 -25 15 -11 17
-17 7 -28 -6 -8 -9 -18 -6 -21 4 -3 3 -23 0 -43 -7 -37 -58 -94 -83 -94 -7 0
-13 -4 -13 -9 0 -12 52 -21 92 -15 32 6 36 2 82 -58 27 -34 86 -100 130 -146
68 -70 97 -92 181 -134 123 -62 140 -77 156 -139 7 -27 16 -49 20 -49 4 0 17
11 30 25 38 39 43 29 7 -12 -46 -51 -68 -71 -108 -101 -19 -14 -53 -45 -75
-67 -64 -66 -71 -68 -128 -29 -27 19 -58 35 -68 35 -11 1 -25 2 -31 3 -7 1
-24 16 -37 34 -13 17 -27 32 -32 32 -10 0 -21 -30 -25 -72 -3 -29 0 -36 11
-31 22 8 18 -12 -5 -28 -17 -12 -20 -26 -22 -86 -1 -40 -5 -73 -10 -73 -4 0
-8 -10 -8 -22 0 -17 3 -19 9 -10 6 11 10 8 14 -10 9 -35 90 -118 116 -118 21
0 175 83 186 100 3 5 -4 11 -15 15 -26 8 -25 21 3 36 30 16 37 30 26 51 -5 10
-10 34 -11 53 -1 32 6 43 55 88 64 60 84 77 91 77 2 0 3 -46 0 -102 -6 -147
19 -258 57 -258 12 0 56 37 102 87 22 24 46 43 52 43 7 0 18 7 25 15 16 20 73
19 116 -1 31 -15 35 -15 62 5 16 11 41 36 56 56 34 44 65 46 100 5 33 -40 46
-89 46 -180 0 -97 -24 -168 -70 -206 -42 -34 -51 -46 -47 -59 2 -5 -5 -17 -16
-26 -16 -12 -20 -30 -23 -90 -1 -41 -5 -81 -9 -90 -3 -10 -1 -20 4 -24 6 -3 9
-11 6 -16 -10 -16 -17 -52 -19 -104 -1 -28 -5 -56 -9 -62 -4 -6 -7 -24 -6 -40
1 -30 -7 -78 -18 -103 -3 -8 -5 -23 -4 -32 1 -10 -2 -18 -6 -18 -5 0 -9 -9 -9
-20 0 -20 7 -20 486 -20 l487 0 -5 30 c-12 83 20 173 69 193 11 4 7 12 -14 31
-30 28 -92 35 -141 17 -59 -23 -60 67 -2 197 19 42 38 94 41 114 9 48 -16 116
-68 185 -42 57 -79 158 -70 192 6 24 21 28 29 6 4 -8 11 -15 18 -15 6 0 20
-13 29 -30 35 -59 57 -30 28 36 -22 49 -28 114 -11 114 6 0 10 8 10 18 0 39
15 43 53 15 55 -41 100 -112 147 -229 36 -88 41 -109 32 -132 -6 -15 -13 -46
-15 -69 -3 -23 -21 -73 -40 -111 -67 -135 -73 -222 -18 -262 16 -11 36 -20 44
-20 21 0 83 -71 96 -111 29 -89 15 -141 -43 -158 -20 -6 70 -10 267 -10 l297
-1 0 2560 0 2560 -2560 0 -2560 0 0 -2560z m2857 2147 c95 -17 117 -18 137 -7
31 16 61 6 52 -17 -4 -9 -18 -79 -31 -155 -25 -144 -31 -166 -47 -150 -5 5 -4
51 3 119 17 158 12 170 -80 179 -63 6 -116 -12 -156 -52 -20 -20 -35 -29 -35
-21 0 14 -85 66 -93 57 -7 -9 -17 -74 -11 -67 4 4 13 2 21 -5 11 -9 8 -16 -17
-37 -27 -23 -30 -29 -21 -57 5 -17 5 -37 1 -44 -4 -7 -6 -33 -4 -59 2 -25 3
-54 4 -64 0 -10 5 -15 10 -12 6 3 10 -4 10 -18 0 -27 -23 -52 -39 -42 -6 3
-18 2 -27 -3 -13 -7 -9 -13 20 -36 20 -15 34 -32 31 -37 -4 -5 3 -9 14 -9 11
0 23 5 26 11 4 6 13 8 21 5 7 -3 30 14 53 40 22 25 46 44 53 43 39 -5 59 3 68
26 11 28 37 33 46 10 4 -8 14 -15 23 -15 14 0 14 -2 1 -10 -11 -7 -4 -10 28
-10 24 0 42 -5 42 -11 0 -6 11 -20 25 -31 35 -28 65 -90 65 -135 0 -43 -28
-111 -54 -132 -28 -23 -1 -31 119 -32 157 -2 116 -6 -190 -19 -148 -6 -436
-22 -640 -35 -203 -14 -413 -28 -465 -31 -237 -14 -304 -35 -340 -109 -22 -46
-27 -145 -10 -204 14 -51 -5 -24 -24 32 -30 89 -17 202 31 265 38 51 93 73
210 84 56 6 103 14 103 19 0 4 -13 76 -30 161 -41 211 -40 248 10 345 49 93
121 166 205 207 33 16 71 37 84 47 26 21 71 25 87 9 7 -7 40 -4 100 9 131 28
454 27 611 -2z m1287 -1393 c5 -14 16 -16 62 -10 31 3 61 2 68 -3 18 -15 117
-41 155 -41 28 0 39 -5 46 -22 7 -17 20 -24 45 -26 63 -5 84 -12 71 -25 -6 -6
-11 -14 -11 -18 0 -7 60 -24 125 -35 22 -4 34 -9 28 -11 -23 -8 -14 -20 40
-54 28 -18 53 -33 54 -33 1 -1 4 -13 8 -29 11 -41 -14 -36 -172 37 -230 106
-302 120 -463 86 -58 -13 -115 -25 -127 -27 -16 -4 -23 -1 -23 10 0 15 -31 40
-42 34 -18 -9 37 32 63 48 l34 19 -27 4 c-63 8 -168 -84 -228 -200 -37 -70
-44 -94 -48 -157 -4 -54 -2 -72 7 -67 6 4 11 18 11 32 0 14 6 24 14 24 8 0 18
18 24 43 6 24 21 52 32 62 11 10 20 15 20 11 0 -8 -26 -123 -41 -177 -14 -53
28 -216 90 -349 22 -48 27 -90 11 -90 -10 0 -137 66 -158 83 -17 13 -70 188
-81 267 -8 64 -5 291 5 340 5 23 7 24 18 7 12 -15 15 -13 30 26 9 23 16 45 16
49 0 3 7 23 16 44 14 33 18 36 28 22 10 -14 14 -14 37 6 15 11 39 40 54 64 29
45 42 51 51 27 9 -23 35 -18 84 14 52 34 66 37 74 15z m-789 -541 c42 -40 58
-32 28 14 l-18 28 25 -20 c17 -12 33 -42 48 -89 36 -117 34 -159 -10 -206 -18
-19 -31 -38 -30 -42 1 -4 -9 -10 -23 -14 -14 -3 -25 -13 -25 -21 0 -8 -7 -13
-17 -11 -11 2 -17 11 -15 21 4 24 -15 56 -55 94 -19 18 -32 37 -29 41 3 5 32
19 64 31 67 24 112 63 112 96 0 20 -6 23 -65 30 -70 7 -98 28 -88 66 9 32 55
24 98 -18z m975 -1185 c18 -75 33 -113 49 -124 14 -11 13 -16 -4 -48 -15 -28
-30 -39 -70 -52 -27 -10 -59 -23 -70 -30 -22 -14 -115 -30 -115 -20 0 3 26 18
58 32 63 28 106 64 129 108 17 32 22 106 10 149 -4 15 -5 27 -3 27 3 0 10 -19
16 -42z m-374 -428 c29 -21 44 -53 44 -92 0 -19 17 -88 39 -154 49 -152 65
-246 58 -351 -8 -118 -36 -176 -101 -208 -69 -34 -98 -32 -142 10 -19 19 -40
35 -45 35 -10 0 -4 63 7 82 16 26 4 126 -26 213 -50 145 -90 295 -90 337 0 55
12 72 76 109 87 49 132 54 180 19z"/>
<path d="M2783 4211 c-80 -37 -97 -136 -33 -193 39 -36 63 -37 54 -4 -14 57
49 127 129 141 37 7 38 8 20 28 -22 24 -74 47 -105 47 -13 0 -42 -9 -65 -19z"/>
<path d="M2223 4194 c-38 -19 -69 -88 -58 -126 8 -24 43 -68 55 -68 4 0 10 17
14 38 8 51 36 85 91 112 51 25 56 36 19 50 -37 14 -84 12 -121 -6z"/>
<path d="M2486 4143 c3 -16 7 -33 9 -39 6 -20 -16 -102 -31 -115 -8 -6 -14
-18 -14 -26 0 -11 4 -11 20 -3 14 7 20 7 20 0 0 -6 28 -10 69 -10 l68 0 6 35
c11 69 -21 114 -95 129 -29 7 -39 26 -13 26 23 0 18 17 -7 24 -36 9 -39 8 -32
-21z"/>
<path d="M2044 3288 c-57 -35 -74 -57 -83 -105 -6 -29 -6 -52 0 -57 5 -6 11 2
15 21 5 24 12 32 33 35 25 4 26 2 24 -42 l-2 -45 10 40 c11 45 44 85 71 85 10
0 44 -9 76 -19 31 -10 87 -21 124 -23 72 -4 73 -2 30 49 -40 46 -251 89 -298
61z"/>
<path d="M2082 3168 c-21 -21 -13 -35 38 -73 28 -20 50 -41 50 -46 0 -5 12
-12 28 -15 39 -10 46 -15 31 -25 -10 -6 -7 -9 10 -9 14 0 33 -7 43 -16 16 -16
18 -15 27 7 5 15 5 29 -1 36 -6 7 -5 14 1 18 15 8 -69 80 -130 110 -54 28 -79
31 -97 13z"/>
<path d="M1784 2823 c-15 -21 -31 -40 -34 -43 -4 -3 -20 -32 -37 -65 -39 -78
-51 -190 -22 -206 11 -5 19 -18 19 -28 0 -27 23 -42 61 -39 28 3 35 -1 37 -19
2 -12 13 -25 25 -29 11 -4 28 -16 37 -27 18 -21 40 -16 40 9 0 11 -6 13 -20 9
-16 -5 -20 -2 -20 19 0 19 4 24 15 19 9 -3 23 1 33 9 9 9 31 16 47 16 17 0 39
3 50 6 11 2 32 5 46 5 15 1 37 9 50 20 l23 18 -21 36 c-12 20 -17 37 -12 39 5
2 11 14 14 27 2 14 18 39 35 56 17 17 28 34 25 37 -3 3 4 25 15 49 29 64 25
78 -11 43 -44 -41 -109 -130 -109 -149 0 -9 7 -18 15 -21 8 -4 15 -9 15 -13 0
-16 -60 -40 -115 -46 -69 -8 -153 18 -205 62 -27 22 -30 29 -24 62 4 20 22 67
40 105 38 75 38 76 25 76 -5 0 -21 -17 -37 -37z"/>
<path d="M1225 814 c8 -34 21 -81 30 -105 9 -24 23 -68 31 -97 18 -69 54 -152
65 -152 12 0 22 66 17 113 -6 49 -88 221 -129 269 l-28 33 14 -61z"/>
<path d="M1143 565 c15 -51 26 -118 32 -205 3 -52 13 -151 21 -220 7 -69 14
-128 14 -132 0 -5 10 -8 23 -8 22 0 22 1 19 122 -1 68 -9 157 -17 199 -8 42
-15 91 -15 109 0 40 -32 109 -62 136 -20 19 -21 19 -15 -1z"/>
</g>
</svg>
